<svg xmlns="http://www.w3.org/2000/svg" xmlns:xlink="http://www.w3.org/1999/xlink" width="220" zoomAndPan="magnify" viewBox="0 0 165 66" height="88" preserveAspectRatio="xMidYMid meet" version="1.0"><defs><g/><clipPath id="d5ba86bea9"><rect x="0" width="41" y="0" height="62"/></clipPath><clipPath id="2bb9c7ce2c"><path d="M 15 46 L 36 46 L 36 60 L 15 60 Z M 15 46 " clip-rule="nonzero"/></clipPath><clipPath id="9c460fdf06"><path d="M 15.488281 57.191406 L 33.679688 46.867188 L 35.027344 49.246094 L 16.835938 59.570312 Z M 15.488281 57.191406 " clip-rule="nonzero"/></clipPath><clipPath id="541c5acdfb"><path d="M 0.359375 0.800781 L 20.039062 0.800781 L 20.039062 13.761719 L 0.359375 13.761719 Z M 0.359375 0.800781 " clip-rule="nonzero"/></clipPath><clipPath id="d0bbe4f021"><path d="M 0.488281 11.191406 L 18.679688 0.867188 L 20.027344 3.246094 L 1.835938 13.570312 Z M 0.488281 11.191406 " clip-rule="nonzero"/></clipPath><clipPath id="551668ea39"><rect x="0" width="21" y="0" height="14"/></clipPath><clipPath id="1b378adc43"><path d="M 20 49 L 38 49 L 38 64 L 20 64 Z M 20 49 " clip-rule="nonzero"/></clipPath><clipPath id="72c12ed807"><path d="M 20.882812 56.726562 L 33.539062 49.546875 L 37.214844 56.023438 L 24.558594 63.203125 Z M 20.882812 56.726562 " clip-rule="nonzero"/></clipPath><clipPath id="f2bfa6cdeb"><path d="M 0.878906 0.441406 L 17.441406 0.441406 L 17.441406 14.359375 L 0.878906 14.359375 Z M 0.878906 0.441406 " clip-rule="nonzero"/></clipPath><clipPath id="0c6b2d001f"><path d="M 0.882812 7.726562 L 13.539062 0.546875 L 17.214844 7.023438 L 4.558594 14.203125 Z M 0.882812 7.726562 " clip-rule="nonzero"/></clipPath><clipPath id="81b56285a7"><rect x="0" width="18" y="0" height="15"/></clipPath><clipPath id="98aeabddc2"><path d="M 25.257812 25.328125 L 40.945312 25.328125 L 40.945312 38.105469 L 25.257812 38.105469 Z M 25.257812 25.328125 " clip-rule="nonzero"/></clipPath><clipPath id="9a82d8a52b"><path d="M 0.257812 0.328125 L 15.945312 0.328125 L 15.945312 13.105469 L 0.257812 13.105469 Z M 0.257812 0.328125 " clip-rule="nonzero"/></clipPath><clipPath id="b7f9900fd1"><rect x="0" width="16" y="0" height="14"/></clipPath><clipPath id="975e845695"><rect x="0" width="18" y="0" height="33"/></clipPath></defs><rect x="-16.5" width="198" fill="#ffffff" y="-6.6" height="79.2" fill-opacity="1"/><rect x="-16.5" width="198" fill="#32135d" y="-6.6" height="79.2" fill-opacity="1"/><g transform="matrix(1, 0, 0, 1, 14, 4)"><g clip-path="url(#d5ba86bea9)"><g fill="#ffffff" fill-opacity="1"><g transform="translate(0.572388, 53.104405)"><g><path d="M 0.8125 0 L 0.8125 -42.78125 L 18.375 -42.78125 C 20.59375 -42.78125 22.664062 -42.6875 24.59375 -42.5 C 26.53125 -42.3125 28.269531 -41.953125 29.8125 -41.421875 C 31.363281 -40.898438 32.691406 -40.144531 33.796875 -39.15625 C 34.898438 -38.175781 35.742188 -36.90625 36.328125 -35.34375 C 36.921875 -33.78125 37.21875 -31.851562 37.21875 -29.5625 L 37.21875 -23.03125 C 37.195312 -20.84375 36.878906 -18.992188 36.265625 -17.484375 C 35.660156 -15.972656 34.820312 -14.734375 33.75 -13.765625 C 32.675781 -12.804688 31.410156 -12.070312 29.953125 -11.5625 C 28.503906 -11.050781 26.910156 -10.691406 25.171875 -10.484375 C 23.441406 -10.285156 21.613281 -10.1875 19.6875 -10.1875 L 19.15625 -10.1875 L 19.15625 0 Z M 18.21875 -20.953125 L 18.9375 -20.953125 C 19.351562 -20.953125 19.640625 -21.054688 19.796875 -21.265625 C 19.953125 -21.472656 20.03125 -21.890625 20.03125 -22.515625 L 20.03125 -29.03125 C 20.03125 -29.6875 19.957031 -30.125 19.8125 -30.34375 C 19.664062 -30.5625 19.34375 -30.671875 18.84375 -30.671875 L 18.21875 -30.671875 Z M 18.21875 -20.953125 "/></g></g></g></g></g><g clip-path="url(#2bb9c7ce2c)"><g clip-path="url(#9c460fdf06)"><g transform="matrix(1, 0, 0, 1, 15, 46)"><g clip-path="url(#551668ea39)"><g clip-path="url(#541c5acdfb)"><g clip-path="url(#d0bbe4f021)"><path fill="#32135d" d="M 0.488281 11.191406 L 18.675781 0.867188 L 20.027344 3.246094 L 1.835938 13.570312 Z M 0.488281 11.191406 " fill-opacity="1" fill-rule="nonzero"/></g></g></g></g></g></g><g clip-path="url(#1b378adc43)"><g clip-path="url(#72c12ed807)"><g transform="matrix(1, 0, 0, 1, 20, 49)"><g clip-path="url(#81b56285a7)"><g clip-path="url(#f2bfa6cdeb)"><g clip-path="url(#0c6b2d001f)"><path fill="#32135d" d="M 0.882812 7.726562 L 13.535156 0.550781 L 17.210938 7.027344 L 4.558594 14.203125 Z M 0.882812 7.726562 " fill-opacity="1" fill-rule="nonzero"/></g></g></g></g></g></g><g clip-path="url(#98aeabddc2)"><g transform="matrix(1, 0, 0, 1, 25, 25)"><g clip-path="url(#b7f9900fd1)"><g clip-path="url(#9a82d8a52b)"><path fill="#ffffff" d="M 0.257812 0.328125 L 15.929688 0.328125 L 15.929688 13.105469 L 0.257812 13.105469 Z M 0.257812 0.328125 " fill-opacity="1" fill-rule="nonzero"/></g></g></g></g><g transform="matrix(1, 0, 0, 1, 24, 14)"><g clip-path="url(#975e845695)"><g fill="#32135d" fill-opacity="1"><g transform="translate(0.705362, 24.137512)"><g><path d="M 0.734375 -7.75 C 0.734375 -9.28125 1.0625 -10.644531 1.71875 -11.84375 C 2.375 -13.039062 3.289062 -13.972656 4.46875 -14.640625 C 5.65625 -15.304688 7 -15.640625 8.5 -15.640625 C 10.34375 -15.640625 11.914062 -15.15625 13.21875 -14.1875 C 14.519531 -13.21875 15.394531 -11.894531 15.84375 -10.21875 L 11.703125 -10.21875 C 11.390625 -10.863281 10.953125 -11.351562 10.390625 -11.6875 C 9.828125 -12.03125 9.179688 -12.203125 8.453125 -12.203125 C 7.296875 -12.203125 6.359375 -11.796875 5.640625 -10.984375 C 4.921875 -10.179688 4.5625 -9.101562 4.5625 -7.75 C 4.5625 -6.40625 4.921875 -5.328125 5.640625 -4.515625 C 6.359375 -3.710938 7.296875 -3.3125 8.453125 -3.3125 C 9.179688 -3.3125 9.828125 -3.476562 10.390625 -3.8125 C 10.953125 -4.144531 11.390625 -4.632812 11.703125 -5.28125 L 15.84375 -5.28125 C 15.394531 -3.613281 14.519531 -2.296875 13.21875 -1.328125 C 11.914062 -0.367188 10.34375 0.109375 8.5 0.109375 C 7 0.109375 5.65625 -0.222656 4.46875 -0.890625 C 3.289062 -1.554688 2.375 -2.484375 1.71875 -3.671875 C 1.0625 -4.867188 0.734375 -6.226562 0.734375 -7.75 Z M 0.734375 -7.75 "/></g></g></g></g></g><g fill="#ffffff" fill-opacity="1"><g transform="translate(57.347714, 54.636342)"><g><path d="M 1.9375 -0.484375 L 1.9375 -17.234375 C 1.9375 -17.554688 2.085938 -17.71875 2.390625 -17.71875 L 9.328125 -17.71875 C 10.410156 -17.71875 11.363281 -17.445312 12.1875 -16.90625 C 13.019531 -16.363281 13.671875 -15.65625 14.140625 -14.78125 C 14.609375 -13.914062 14.84375 -12.992188 14.84375 -12.015625 C 14.84375 -11.035156 14.597656 -10.113281 14.109375 -9.25 C 13.628906 -8.394531 12.972656 -7.703125 12.140625 -7.171875 C 11.304688 -6.640625 10.351562 -6.375 9.28125 -6.375 L 5.390625 -6.375 L 5.390625 -0.484375 C 5.390625 -0.160156 5.234375 0 4.921875 0 L 2.390625 0 C 2.085938 0 1.9375 -0.160156 1.9375 -0.484375 Z M 8.640625 -14.6875 L 5.390625 -14.6875 L 5.390625 -9.390625 L 8.640625 -9.390625 C 9.441406 -9.390625 10.085938 -9.640625 10.578125 -10.140625 C 11.066406 -10.648438 11.3125 -11.273438 11.3125 -12.015625 C 11.3125 -12.742188 11.066406 -13.367188 10.578125 -13.890625 C 10.085938 -14.421875 9.441406 -14.6875 8.640625 -14.6875 Z M 8.640625 -14.6875 "/></g></g></g><g fill="#ffffff" fill-opacity="1"><g transform="translate(72.362648, 54.636342)"><g><path d="M 0.359375 -0.5 L 7.09375 -17.265625 C 7.238281 -17.566406 7.4375 -17.71875 7.6875 -17.71875 L 9.6875 -17.71875 C 9.976562 -17.71875 10.179688 -17.566406 10.296875 -17.265625 L 17.015625 -0.5 C 17.097656 -0.34375 17.101562 -0.21875 17.03125 -0.125 C 16.957031 -0.0390625 16.84375 0 16.6875 0 L 14.09375 0 C 13.800781 0 13.597656 -0.144531 13.484375 -0.4375 L 12.34375 -3.296875 L 5.015625 -3.296875 L 3.890625 -0.4375 C 3.773438 -0.144531 3.578125 0 3.296875 0 L 0.671875 0 C 0.316406 0 0.210938 -0.164062 0.359375 -0.5 Z M 8.6875 -13.125 L 6.140625 -6.375 L 11.203125 -6.375 Z M 8.6875 -13.125 "/></g></g></g><g fill="#ffffff" fill-opacity="1"><g transform="translate(89.454376, 54.636342)"><g><path d="M 13.5625 -4.125 C 13.71875 -4.257812 13.859375 -4.328125 13.984375 -4.328125 C 14.117188 -4.328125 14.234375 -4.257812 14.328125 -4.125 L 15.515625 -2.09375 C 15.722656 -1.84375 15.6875 -1.613281 15.40625 -1.40625 C 14.71875 -0.894531 13.953125 -0.488281 13.109375 -0.1875 C 12.265625 0.113281 11.300781 0.265625 10.21875 0.265625 C 8.957031 0.265625 7.769531 0.03125 6.65625 -0.4375 C 5.539062 -0.90625 4.566406 -1.5625 3.734375 -2.40625 C 2.898438 -3.25 2.242188 -4.222656 1.765625 -5.328125 C 1.285156 -6.441406 1.046875 -7.625 1.046875 -8.875 C 1.046875 -10.15625 1.285156 -11.34375 1.765625 -12.4375 C 2.242188 -13.539062 2.898438 -14.503906 3.734375 -15.328125 C 4.566406 -16.148438 5.539062 -16.796875 6.65625 -17.265625 C 7.769531 -17.742188 8.957031 -17.984375 10.21875 -17.984375 C 11.300781 -17.984375 12.265625 -17.832031 13.109375 -17.53125 C 13.960938 -17.238281 14.734375 -16.835938 15.421875 -16.328125 C 15.546875 -16.210938 15.609375 -16.097656 15.609375 -15.984375 C 15.609375 -15.878906 15.59375 -15.796875 15.5625 -15.734375 L 14.296875 -13.578125 C 14.234375 -13.484375 14.140625 -13.4375 14.015625 -13.4375 C 13.921875 -13.4375 13.789062 -13.476562 13.625 -13.5625 C 13.070312 -13.914062 12.53125 -14.1875 12 -14.375 C 11.46875 -14.5625 10.875 -14.65625 10.21875 -14.65625 C 9.15625 -14.65625 8.195312 -14.398438 7.34375 -13.890625 C 6.488281 -13.378906 5.8125 -12.6875 5.3125 -11.8125 C 4.820312 -10.9375 4.578125 -9.957031 4.578125 -8.875 C 4.578125 -7.8125 4.820312 -6.832031 5.3125 -5.9375 C 5.8125 -5.050781 6.488281 -4.34375 7.34375 -3.8125 C 8.195312 -3.28125 9.15625 -3.015625 10.21875 -3.015625 C 10.875 -3.015625 11.488281 -3.117188 12.0625 -3.328125 C 12.644531 -3.546875 13.144531 -3.8125 13.5625 -4.125 Z M 13.5625 -4.125 "/></g></g></g><g fill="#ffffff" fill-opacity="1"><g transform="translate(106.283518, 54.636342)"><g><path d="M 13.375 -0.484375 L 13.375 -7.640625 L 5.421875 -7.640625 L 5.421875 -0.484375 C 5.421875 -0.160156 5.242188 0 4.890625 0 L 2.390625 0 C 2.085938 0 1.9375 -0.160156 1.9375 -0.484375 L 1.9375 -17.21875 C 1.9375 -17.550781 2.085938 -17.71875 2.390625 -17.71875 L 4.96875 -17.71875 C 5.0625 -17.71875 5.160156 -17.6875 5.265625 -17.625 C 5.367188 -17.5625 5.421875 -17.429688 5.421875 -17.234375 L 5.421875 -11 L 13.375 -11 L 13.375 -17.21875 C 13.375 -17.550781 13.523438 -17.71875 13.828125 -17.71875 L 16.40625 -17.71875 C 16.5 -17.71875 16.59375 -17.6875 16.6875 -17.625 C 16.78125 -17.5625 16.828125 -17.429688 16.828125 -17.234375 L 16.828125 -0.484375 C 16.828125 -0.160156 16.660156 0 16.328125 0 L 13.828125 0 C 13.523438 0 13.375 -0.160156 13.375 -0.484375 Z M 13.375 -0.484375 "/></g></g></g><g fill="#ffffff" fill-opacity="1"><g transform="translate(124.735891, 54.636342)"><g><path d="M 19.265625 -8.859375 C 19.265625 -7.597656 19.023438 -6.414062 18.546875 -5.3125 C 18.066406 -4.21875 17.410156 -3.253906 16.578125 -2.421875 C 15.742188 -1.585938 14.773438 -0.9375 13.671875 -0.46875 C 12.566406 0 11.382812 0.234375 10.125 0.234375 C 8.863281 0.234375 7.679688 0 6.578125 -0.46875 C 5.484375 -0.9375 4.519531 -1.585938 3.6875 -2.421875 C 2.863281 -3.253906 2.21875 -4.21875 1.75 -5.3125 C 1.28125 -6.414062 1.046875 -7.597656 1.046875 -8.859375 C 1.046875 -10.128906 1.28125 -11.3125 1.75 -12.40625 C 2.21875 -13.507812 2.863281 -14.476562 3.6875 -15.3125 C 4.519531 -16.144531 5.484375 -16.796875 6.578125 -17.265625 C 7.679688 -17.742188 8.863281 -17.984375 10.125 -17.984375 C 11.382812 -17.984375 12.566406 -17.742188 13.671875 -17.265625 C 14.773438 -16.796875 15.742188 -16.144531 16.578125 -15.3125 C 17.410156 -14.476562 18.066406 -13.507812 18.546875 -12.40625 C 19.023438 -11.3125 19.265625 -10.128906 19.265625 -8.859375 Z M 15.75 -8.859375 C 15.75 -9.941406 15.503906 -10.914062 15.015625 -11.78125 C 14.523438 -12.644531 13.859375 -13.335938 13.015625 -13.859375 C 12.171875 -14.378906 11.207031 -14.640625 10.125 -14.640625 C 9.050781 -14.640625 8.09375 -14.378906 7.25 -13.859375 C 6.414062 -13.335938 5.753906 -12.644531 5.265625 -11.78125 C 4.773438 -10.914062 4.53125 -9.941406 4.53125 -8.859375 C 4.53125 -7.796875 4.773438 -6.828125 5.265625 -5.953125 C 5.753906 -5.085938 6.414062 -4.394531 7.25 -3.875 C 8.09375 -3.363281 9.050781 -3.109375 10.125 -3.109375 C 11.207031 -3.109375 12.171875 -3.363281 13.015625 -3.875 C 13.859375 -4.394531 14.523438 -5.085938 15.015625 -5.953125 C 15.503906 -6.828125 15.75 -7.796875 15.75 -8.859375 Z M 15.75 -8.859375 "/></g></g></g><g fill="#ffffff" fill-opacity="1"><g transform="translate(57.347714, 33.735117)"><g><path d="M 16.625 -17.25 C 16.851562 -17.101562 16.96875 -16.957031 16.96875 -16.8125 C 16.96875 -16.738281 16.941406 -16.660156 16.890625 -16.578125 C 16.847656 -16.492188 16.8125 -16.425781 16.78125 -16.375 L 16.25 -15.53125 C 16.09375 -15.332031 15.945312 -15.234375 15.8125 -15.234375 C 15.757812 -15.242188 15.695312 -15.257812 15.625 -15.28125 C 15.550781 -15.3125 15.460938 -15.363281 15.359375 -15.4375 C 14.734375 -15.894531 14.03125 -16.253906 13.25 -16.515625 C 12.476562 -16.773438 11.703125 -16.90625 10.921875 -16.90625 C 9.804688 -16.90625 8.785156 -16.707031 7.859375 -16.3125 C 6.929688 -15.914062 6.128906 -15.363281 5.453125 -14.65625 C 4.785156 -13.945312 4.265625 -13.144531 3.890625 -12.25 C 3.523438 -11.351562 3.34375 -10.398438 3.34375 -9.390625 C 3.34375 -8.335938 3.546875 -7.359375 3.953125 -6.453125 C 4.359375 -5.546875 4.914062 -4.753906 5.625 -4.078125 C 6.34375 -3.398438 7.148438 -2.867188 8.046875 -2.484375 C 8.941406 -2.097656 9.882812 -1.90625 10.875 -1.90625 C 11.519531 -1.90625 12.160156 -1.988281 12.796875 -2.15625 C 13.429688 -2.332031 14.125 -2.648438 14.875 -3.109375 C 15.039062 -3.191406 15.207031 -3.304688 15.375 -3.453125 C 15.550781 -3.597656 15.695312 -3.671875 15.8125 -3.671875 C 15.96875 -3.671875 16.113281 -3.566406 16.25 -3.359375 L 16.828125 -2.390625 C 16.878906 -2.273438 16.90625 -2.15625 16.90625 -2.03125 C 16.90625 -1.84375 16.8125 -1.703125 16.625 -1.609375 C 15.832031 -1.023438 14.945312 -0.5625 13.96875 -0.21875 C 12.988281 0.113281 11.941406 0.28125 10.828125 0.28125 C 9.484375 0.28125 8.222656 0.03125 7.046875 -0.46875 C 5.878906 -0.96875 4.847656 -1.660156 3.953125 -2.546875 C 3.066406 -3.441406 2.375 -4.472656 1.875 -5.640625 C 1.375 -6.816406 1.125 -8.078125 1.125 -9.421875 C 1.125 -10.765625 1.375 -12.023438 1.875 -13.203125 C 2.375 -14.378906 3.066406 -15.414062 3.953125 -16.3125 C 4.847656 -17.207031 5.882812 -17.90625 7.0625 -18.40625 C 8.25 -18.90625 9.507812 -19.15625 10.84375 -19.15625 C 11.914062 -19.15625 12.941406 -18.988281 13.921875 -18.65625 C 14.898438 -18.320312 15.800781 -17.851562 16.625 -17.25 Z M 16.625 -17.25 "/></g></g></g><g fill="#ffffff" fill-opacity="1"><g transform="translate(75.30046, 33.735117)"><g><path d="M 2.625 -18.890625 L 14.875 -18.890625 C 15.25 -18.890625 15.4375 -18.695312 15.4375 -18.3125 L 15.4375 -17.265625 C 15.4375 -17.109375 15.382812 -16.972656 15.28125 -16.859375 C 15.175781 -16.742188 15.03125 -16.6875 14.84375 -16.6875 L 4.25 -16.6875 L 4.25 -11.046875 L 12.6875 -11.046875 C 12.832031 -11.046875 12.960938 -11 13.078125 -10.90625 C 13.191406 -10.8125 13.25 -10.664062 13.25 -10.46875 L 13.25 -9.421875 C 13.25 -9.265625 13.203125 -9.128906 13.109375 -9.015625 C 13.015625 -8.898438 12.875 -8.84375 12.6875 -8.84375 L 4.25 -8.84375 L 4.25 -2.21875 L 14.953125 -2.21875 C 15.335938 -2.21875 15.53125 -2.015625 15.53125 -1.609375 L 15.53125 -0.5625 C 15.53125 -0.1875 15.34375 0 14.96875 0 L 2.625 0 C 2.25 0 2.0625 -0.175781 2.0625 -0.53125 L 2.0625 -18.3125 C 2.0625 -18.695312 2.25 -18.890625 2.625 -18.890625 Z M 2.625 -18.890625 "/></g></g></g><g fill="#ffffff" fill-opacity="1"><g transform="translate(91.648917, 33.735117)"><g><path d="M 12.765625 -14.96875 C 12.492188 -15.226562 12.128906 -15.519531 11.671875 -15.84375 C 11.222656 -16.164062 10.703125 -16.441406 10.109375 -16.671875 C 9.515625 -16.910156 8.863281 -17.03125 8.15625 -17.03125 C 7.195312 -17.03125 6.410156 -16.878906 5.796875 -16.578125 C 5.191406 -16.273438 4.75 -15.890625 4.46875 -15.421875 C 4.1875 -14.953125 4.046875 -14.472656 4.046875 -13.984375 C 4.046875 -13.398438 4.269531 -12.921875 4.71875 -12.546875 C 5.175781 -12.179688 5.75 -11.875 6.4375 -11.625 C 7.132812 -11.375 7.847656 -11.148438 8.578125 -10.953125 C 9.347656 -10.742188 10.125 -10.507812 10.90625 -10.25 C 11.6875 -10 12.410156 -9.6875 13.078125 -9.3125 C 13.742188 -8.945312 14.28125 -8.46875 14.6875 -7.875 C 15.101562 -7.289062 15.3125 -6.550781 15.3125 -5.65625 C 15.3125 -4.445312 14.988281 -3.394531 14.34375 -2.5 C 13.707031 -1.613281 12.847656 -0.929688 11.765625 -0.453125 C 10.691406 0.015625 9.492188 0.25 8.171875 0.25 C 6.867188 0.25 5.613281 -0.0195312 4.40625 -0.5625 C 3.195312 -1.101562 2.1875 -1.898438 1.375 -2.953125 C 1.238281 -3.140625 1.171875 -3.289062 1.171875 -3.40625 C 1.171875 -3.5625 1.25 -3.703125 1.40625 -3.828125 L 2.21875 -4.515625 C 2.332031 -4.597656 2.457031 -4.640625 2.59375 -4.640625 C 2.71875 -4.640625 2.832031 -4.582031 2.9375 -4.46875 C 3.050781 -4.351562 3.125 -4.28125 3.15625 -4.25 C 3.664062 -3.738281 4.238281 -3.304688 4.875 -2.953125 C 5.507812 -2.597656 6.128906 -2.332031 6.734375 -2.15625 C 7.335938 -1.976562 7.84375 -1.890625 8.25 -1.890625 C 8.78125 -1.890625 9.328125 -1.957031 9.890625 -2.09375 C 10.460938 -2.238281 10.988281 -2.457031 11.46875 -2.75 C 11.957031 -3.050781 12.351562 -3.429688 12.65625 -3.890625 C 12.957031 -4.347656 13.109375 -4.882812 13.109375 -5.5 C 13.109375 -6.195312 12.863281 -6.75 12.375 -7.15625 C 11.882812 -7.5625 11.25 -7.894531 10.46875 -8.15625 C 9.6875 -8.425781 8.851562 -8.671875 7.96875 -8.890625 C 5.882812 -9.429688 4.316406 -10.078125 3.265625 -10.828125 C 2.222656 -11.585938 1.703125 -12.613281 1.703125 -13.90625 C 1.703125 -14.9375 1.972656 -15.847656 2.515625 -16.640625 C 3.066406 -17.429688 3.828125 -18.050781 4.796875 -18.5 C 5.773438 -18.945312 6.925781 -19.171875 8.25 -19.171875 C 9.269531 -19.171875 10.304688 -18.941406 11.359375 -18.484375 C 12.410156 -18.023438 13.300781 -17.453125 14.03125 -16.765625 C 14.132812 -16.640625 14.238281 -16.515625 14.34375 -16.390625 C 14.457031 -16.265625 14.515625 -16.148438 14.515625 -16.046875 C 14.515625 -15.910156 14.445312 -15.773438 14.3125 -15.640625 L 13.546875 -14.90625 C 13.429688 -14.78125 13.320312 -14.71875 13.21875 -14.71875 C 13.082031 -14.71875 12.929688 -14.800781 12.765625 -14.96875 Z M 12.765625 -14.96875 "/></g></g></g><g fill="#ffffff" fill-opacity="1"><g transform="translate(107.97191, 33.735117)"><g><path d="M 4.375 -4.125 L 2.953125 -0.515625 C 2.796875 -0.171875 2.554688 0 2.234375 0 L 1.140625 0 C 0.785156 0 0.609375 -0.132812 0.609375 -0.40625 C 0.609375 -0.488281 0.613281 -0.5625 0.625 -0.625 C 0.644531 -0.695312 0.65625 -0.734375 0.65625 -0.734375 C 1.882812 -3.691406 2.921875 -6.179688 3.765625 -8.203125 C 4.617188 -10.234375 5.316406 -11.894531 5.859375 -13.1875 C 6.398438 -14.476562 6.816406 -15.484375 7.109375 -16.203125 C 7.410156 -16.929688 7.628906 -17.453125 7.765625 -17.765625 C 7.898438 -18.078125 7.976562 -18.265625 8 -18.328125 C 8.03125 -18.398438 8.046875 -18.4375 8.046875 -18.4375 C 8.078125 -18.519531 8.132812 -18.613281 8.21875 -18.71875 C 8.3125 -18.832031 8.46875 -18.890625 8.6875 -18.890625 L 9.421875 -18.890625 C 9.640625 -18.890625 9.789062 -18.832031 9.875 -18.71875 C 9.96875 -18.613281 10.03125 -18.519531 10.0625 -18.4375 L 17.390625 -0.71875 C 17.390625 -0.71875 17.398438 -0.675781 17.421875 -0.59375 C 17.453125 -0.519531 17.46875 -0.457031 17.46875 -0.40625 C 17.46875 -0.132812 17.28125 0 16.90625 0 L 15.8125 0 C 15.476562 0 15.25 -0.160156 15.125 -0.484375 L 13.65625 -4.125 Z M 9.046875 -15.609375 L 5.296875 -6.296875 L 12.765625 -6.296875 Z M 9.046875 -15.609375 "/></g></g></g><g fill="#ffffff" fill-opacity="1"><g transform="translate(126.204774, 33.735117)"><g><path d="M 13.78125 -12.90625 C 13.78125 -13.59375 13.609375 -14.222656 13.265625 -14.796875 C 12.929688 -15.367188 12.476562 -15.832031 11.90625 -16.1875 C 11.332031 -16.550781 10.691406 -16.734375 9.984375 -16.734375 L 4.25 -16.734375 L 4.25 -9.09375 L 10.015625 -9.09375 C 10.722656 -9.09375 11.359375 -9.265625 11.921875 -9.609375 C 12.492188 -9.960938 12.945312 -10.429688 13.28125 -11.015625 C 13.613281 -11.597656 13.78125 -12.226562 13.78125 -12.90625 Z M 2.0625 -0.5625 L 2.0625 -18.28125 C 2.0625 -18.6875 2.25 -18.890625 2.625 -18.890625 L 9.984375 -18.890625 C 11.109375 -18.890625 12.117188 -18.617188 13.015625 -18.078125 C 13.910156 -17.535156 14.625 -16.8125 15.15625 -15.90625 C 15.695312 -15 15.96875 -13.992188 15.96875 -12.890625 C 15.96875 -11.703125 15.644531 -10.617188 15 -9.640625 C 14.351562 -8.660156 13.515625 -7.9375 12.484375 -7.46875 L 15.84375 -0.5625 C 15.851562 -0.507812 15.863281 -0.460938 15.875 -0.421875 C 15.882812 -0.390625 15.890625 -0.359375 15.890625 -0.328125 C 15.890625 -0.109375 15.738281 0 15.4375 0 L 14.03125 0 C 13.757812 0 13.539062 -0.160156 13.375 -0.484375 L 10.296875 -6.953125 C 10.242188 -6.953125 10.101562 -6.945312 9.875 -6.9375 C 9.65625 -6.925781 9.4375 -6.921875 9.21875 -6.921875 C 9 -6.921875 8.828125 -6.921875 8.703125 -6.921875 L 4.25 -6.921875 L 4.25 -0.5625 C 4.25 -0.1875 4.0625 0 3.6875 0 L 2.625 0 C 2.25 0 2.0625 -0.1875 2.0625 -0.5625 Z M 2.0625 -0.5625 "/></g></g></g></svg>